<svg width="3.8rem" viewBox="0 0 786.3 891.5"><g><g id="SvgjsG1313" transform="matrix(3.6407545400576726,0,0,3.6407545400576726,20.000026788838934,20.01519543671765)"><path fill="#fff" d="M95.1,237.4L1.9,183.5c-4.6-2.6-7.4-7.5-7.4-12.8V63.1c0-5.3,2.8-10.2,7.4-12.8L95.1-3.5c4.6-2.6,10.2-2.6,14.8,0 l93.2,53.9c4.6,2.6,7.4,7.5,7.4,12.8v107.6c0,5.3-2.8,10.2-7.4,12.8l-93.2,53.8C105.3,240,99.7,240,95.1,237.4z"></path></g> <g id="SvgjsG1314" transform="matrix(1.7343045648587385,0,0,1.7343045648587385,23.284771757063076,35.368713114290834)"><g><g><polygon fill="#000" points="154.6,66.1 36.8,134.2 36.8,186.9 154.6,118.9 272.5,186.9 272.5,134.2 " class="st0"></polygon></g> <g><polygon fill="#000" points="270.4,406.1 152.6,338.1 152.6,285.3 270.4,353.3 388.3,285.3 388.3,338.1 " class="st0"></polygon></g> <g><polygon fill="#000" points="36.8,201.1 154.6,133.1 200.3,159.5 82.5,227.5 82.5,363.6 36.8,337.2 " class="st0"></polygon></g> <g><polygon fill="#000" points="330.5,100.4 212.6,32.3 166.9,58.7 284.7,126.7 284.7,262.8 330.5,236.4 " class="st0"></polygon></g> <g><polygon fill="#000" points="95,371.4 95,235.4 140.7,209 140.7,345 258.6,413.1 212.9,439.5 " class="st0"></polygon></g> <g><polygon fill="#000" points="388.3,271.1 388.3,135.1 342.6,108.7 342.6,244.7 224.7,312.8 270.4,339.2 " class="st0"></polygon></g></g></g></g></svg>